<?xml version="1.0" standalone="no"?><!DOCTYPE svg PUBLIC "-//W3C//DTD SVG 1.1//EN" "http://www.w3.org/Graphics/SVG/1.1/DTD/svg11.dtd"><svg t="1511418972394" class="icon" style="" viewBox="0 0 1024 1024" version="1.1" xmlns="http://www.w3.org/2000/svg" p-id="12975" xmlns:xlink="http://www.w3.org/1999/xlink" width="128" height="128"><defs><style type="text/css"></style></defs><path d="M683.2241 456.4736c-151.8469-97.8053-283.1053 38.0764-283.1053 38.0764-68.5425 71.7773-141.2915 48.6881-141.2915 48.6881 121.0921 247.21 361.3573 133.25 361.3573 133.25-1.364 37.292-82.2518 48.1761-82.2518 48.1761s120.3415 63.3354 200.3384-49.2134C818.2712 562.8959 683.2241 456.4736 683.2241 456.4736zM718.0278 384.9912c-63.6631-46.0452-94.3647 12.6884-94.3647 12.6884 93.8711 27.1401 130.7208 93.7585 130.7208 93.7585C772.7636 470.9407 781.695 431.0374 718.0278 384.9912zM899.1529 163.9434 747.2947 355.0761c0 0-15.7829 28.0986 29.782 29.397l151.8592-191.1368C928.9359 193.3363 947.1693 155.8917 899.1529 163.9434z" p-id="12976"></path><path d="M856.6282 674.0756c41.6563 67.5994-40.3302 99.2492-40.3302 99.2492 20.2885 30.4128-30.9719 67.3434-30.9719 67.3434-58.7889 56.8064-100.8742-0.0451-100.8742-0.0451-118.8547 78.591-159.189-54.8598-159.189-54.8598s58.9834 120.0425 157.056 35.6608c0 0 49.0342 49.0332 91.2323 5.7006 0 0 45.6151-35.3577 22.8055-62.722C796.3576 764.4027 876.0177 752.7649 856.6282 674.0756z" p-id="12977"></path><path d="M461.0826 820.2148c-19.7827 62.1466-83.4458 27.7832-83.4458 27.7832-8.0701 28.928-58.5533 16.596-58.5533 16.596-66.901-6.4236-54.0436-63.0999-54.0436-63.0999-112.6687-32.3502-51.1539-128.8366-51.1539-128.8366s-43.1647 100.9869 61.9715 117.2511c0 0-4.2629 56.8453 45.3509 60.0914 0 0 46.4773 9.641 51.2983-19.2338C372.5056 830.7651 422.4553 874.3608 461.0826 820.2148z" p-id="12978"></path><path d="M181.973 657.8002C42.1489 613.9761 125.1226 522.9906 125.1226 522.9906c-75.221-54.2597-4.5537-113.5278-4.5537-113.5278 65.0906-62.4097 143.0303 8.2545 143.0303 8.2545 68.7329-154.837 205.9192 8.0445 205.9192 8.0445s-131.9117-132.0694-202.4602 5.3248c0 0-99.969-71.68-136.233-10.8657 0 0-56.4081 59.6982 9.385 98.1658C140.2102 518.3867 62.3032 614.1112 181.973 657.8002z" p-id="12979"></path></svg>