<?xml version="1.0" standalone="no"?><!DOCTYPE svg PUBLIC "-//W3C//DTD SVG 1.1//EN" "http://www.w3.org/Graphics/SVG/1.1/DTD/svg11.dtd"><svg t="1511416764993" class="icon" style="" viewBox="0 0 1024 1024" version="1.1" xmlns="http://www.w3.org/2000/svg" p-id="32171" xmlns:xlink="http://www.w3.org/1999/xlink" width="128" height="128"><defs><style type="text/css"></style></defs><path d="M242.397 1011.181c-50.769 0-92.124-41.292-92.17-92.025l26.437-414.372c-80.282-34.796-135.63-129.368-135.63-233.709 0-136.823 91.638-248.151 204.301-248.151 112.64 0 204.301 111.328 204.301 248.151 0 107.589-57.592 202.956-141.205 235.859l26.067 409.277c0.046 53.187-41.286 94.97-92.101 94.97v0zM245.334 81.345c-80.768 0-146.478 85.108-146.478 189.729 0 84.010 43.738 159 106.349 182.345l30.346 11.38-0.948 39.563-26.622 416.662c0.069 16.335 15.82 31.735 34.416 31.735 18.92 0 34.324-15.563 34.324-34.679l-26.807-431.524-0.185-21.336 31.479-10.469c65.132-21.593 110.604-97.12 110.604-183.677 0-104.621-65.71-189.729-146.478-189.729v0zM752.907 1011.181c-50.792 0-92.147-41.292-92.194-92.025l26.668-417.363c-76.951-27.715-129.917-102.845-129.917-186.014v-247.427h57.823v247.427c0 60.852 40.245 115.581 97.883 133.107l33.676 10.259-1.434 35.474c-0.162 3.903-0.254 6.426-0.254 9.044l-26.668 417.363c0.069 16.335 15.82 31.735 34.416 31.735 18.92 0 34.324-15.563 34.324-34.679l-26.46-411.451c-0.093-5.048-0.185-7.408-0.278-9.768l-1.365-37.764 33.514-10.189c57.638-17.526 97.883-72.256 97.883-133.084v-247.473h57.823v247.45c0 83.145-52.943 158.252-129.871 185.991 0 0.841 0.023 1.729 0.023 2.687l26.483 411.708c0.069 53.21-41.263 94.993-92.078 94.993v0zM722.353 330.033h-58.517v-261.681h57.823l0.694 261.681zM831.246 330.033h-58.517v-261.681h57.823l0.694 261.681z" p-id="32172"></path></svg>