<?xml version="1.0" standalone="no"?><!DOCTYPE svg PUBLIC "-//W3C//DTD SVG 1.1//EN" "http://www.w3.org/Graphics/SVG/1.1/DTD/svg11.dtd"><svg t="1511416714542" class="icon" style="" viewBox="0 0 1024 1024" version="1.1" xmlns="http://www.w3.org/2000/svg" p-id="31825" xmlns:xlink="http://www.w3.org/1999/xlink" width="128" height="128"><defs><style type="text/css"></style></defs><path d="M920.639 466.808C909.657 239.438 721.835 58.464 491.74 58.466c-7.662 0-15.374 0.2-23.125 0.606C251.869 70.436 74.309 247.998 62.946 464.745c-12.61 240.508 172.79 440.672 407.736 452.02 0.32 0.015 0.637 0.023 0.953 0.023 11.078 0 20.106-9.357 20.106-20.56v-387.91c0-11.294 9.156-20.449 20.447-20.449h387.913c11.523 0 21.093-9.551 20.538-21.061z m-408.45-19.834c-33.823 0-61.344 27.519-61.344 61.343V874.26c-95.269-9.899-182.447-54.112-247.381-125.937-69.75-77.145-105.15-177.096-99.68-281.436C114.038 271.357 275.23 110.164 470.758 99.912c7.034-0.369 14.033-0.551 20.984-0.551h0.004c200.255 0 365.945 150.985 386.387 347.612H512.188z m428.808 81.793h-387.91c-11.292 0-20.447 9.154-20.447 20.448v387.908c0 11.206 9.028 20.563 20.108 20.563 0.317 0 0.636-0.009 0.955-0.023 220.39-10.645 397.186-187.443 407.832-407.831 0.556-11.512-9.014-21.065-20.538-21.065zM573.535 915.234V569.662h345.5c-18.96 183.327-162.925 327.045-345.5 345.572z" p-id="31826"></path></svg>