<?xml version="1.0" standalone="no"?><!DOCTYPE svg PUBLIC "-//W3C//DTD SVG 1.1//EN" "http://www.w3.org/Graphics/SVG/1.1/DTD/svg11.dtd"><svg t="1511418962884" class="icon" style="" viewBox="0 0 1024 1024" version="1.1" xmlns="http://www.w3.org/2000/svg" p-id="12854" xmlns:xlink="http://www.w3.org/1999/xlink" width="128" height="128"><defs><style type="text/css"></style></defs><path d="M622.163517 946.302407c0 6.257517-5.073552 11.248182-11.167341 11.248182L343.22969 957.550589c-6.17463 0-11.167341-4.990664-11.167341-11.248182l0-67.533093c0-6.180769 4.992711-11.18269 11.167341-11.18269l267.766486 0c6.093788 0 11.167341 5.001921 11.167341 11.18269L622.163517 946.302407 622.163517 946.302407zM737.446124 702.733019 624.513028 829.342602c0 0-12.19474 15.477506-27.526937 15.477506l-243.995083 0.014326c-13.849426 0-25.088398-11.269671-25.088398-25.225521L327.90261 680.0586l78.067007 81.33033c38.520315 33.256428 79.474053 25.90295 105.341187 2.616594l121.400954-114.335025-55.440683-102.224196c-15.792685-28.947286-8.875135-63.225997 15.456017-76.518744 24.345478-13.279445 56.873312-0.508583 72.665996 28.526707l74.689073 137.520073c12.413727 22.845311 10.571776 49.084928-2.78237 65.50183L737.446124 702.733019 737.446124 702.733019zM825.823963 417.60512 705.25905 539.990494c0.859577-0.852414-23.391756-42.918485-30.396287-52.470025-21.62246-29.712719-60.055794-52.0474-99.363032-24.806989-23.727401 16.419971-26.850531 39.032992-22.853497 68.051909 3.530406 25.555026 54.122665 106.031918 53.213969 106.883309l-91.843778 92.331895c-14.435781 14.473643-33.619702 22.430872-54.146201 22.430872-20.34742 0-39.451524-7.957229-53.895491-22.430872L182.881702 506.631736c-29.820166-29.953196-29.820166-78.43949 0-108.319008L494.760872 85.857437c29.747511-29.782304 78.156034-29.878494 108.048855 0l223.014236 223.502353c14.364149 14.393825 22.49534 33.606399 22.49534 54.165644C848.319304 383.926066 840.231091 403.137617 825.823963 417.60512L825.823963 417.60512z" p-id="12855"></path></svg>