<?xml version="1.0" standalone="no"?><!DOCTYPE svg PUBLIC "-//W3C//DTD SVG 1.1//EN" "http://www.w3.org/Graphics/SVG/1.1/DTD/svg11.dtd"><svg t="1511418951554" class="icon" style="" viewBox="0 0 1024 1024" version="1.1" xmlns="http://www.w3.org/2000/svg" p-id="12607" xmlns:xlink="http://www.w3.org/1999/xlink" width="128" height="128"><defs><style type="text/css"></style></defs><path d="M445.264957 224.820513c14.222222 20.239316 37.74359 32.820513 64 32.820513 27.350427 0 51.965812-14.222222 65.641026-35.555556l270.222222 189.264957H181.059829l264.205128-186.529914z m50.871795 384.547008c-17.504274 0-31.179487 6.017094-40.478632 18.598291-9.299145 11.487179-13.675214 27.350427-13.675214 47.589744 0 19.692308 4.376068 35.555556 13.675214 47.042735 9.846154 12.034188 23.521368 18.051282 40.478632 18.051282 17.504274 0 30.632479-6.017094 40.478633-17.504274 9.299145-11.487179 14.222222-27.350427 14.222222-47.589743 0-20.239316-4.923077-36.102564-14.222222-48.136753-9.299145-12.581197-22.42735-18.051282-40.478633-18.051282z m401.504274-189.264957l-313.435898-219.350427c2.188034-7.111111 3.282051-14.222222 3.282051-21.880342 0-43.213675-35.008547-78.769231-78.76923-78.769231-43.213675 0-78.769231 35.008547-78.769231 78.769231 0 8.752137 1.641026 17.504274 4.376068 25.162393L131.82906 418.461538C55.794872 440.888889 0 510.905983 0 594.051282v146.051282c0 101.196581 82.051282 182.700855 182.700855 182.700855h658.051282c101.196581 0 182.700855-82.051282 182.700854-182.700855v-146.051282c0.547009-80.957265-52.512821-149.880342-125.811965-173.948718zM237.948718 747.213675c-12.581197 10.393162-27.897436 15.863248-45.401709 15.863248-26.803419 0-47.042735-8.752137-60.717949-26.803419-11.487179-15.316239-17.504274-35.555556-17.504274-61.264957 0-25.162393 6.017094-45.948718 18.051282-61.811966 13.675214-18.051282 33.367521-26.803419 59.623932-26.803419 19.145299 0 35.008547 4.923077 47.042735 15.31624 12.034188 9.846154 19.145299 23.521368 21.880342 41.025641h-24.068376c-2.735043-11.487179-8.205128-20.239316-15.863248-25.709402s-17.504274-8.205128-29.538462-8.205128c-17.504274 0-31.179487 6.017094-39.931623 18.59829-8.205128 11.487179-12.581197 26.803419-12.581197 47.042735 0 20.239316 4.376068 36.102564 12.581197 47.589744 8.752137 12.034188 22.42735 18.051282 40.478632 18.051282 12.034188 0 21.880342-3.282051 29.538462-9.299145 8.205128-6.564103 14.222222-16.410256 16.957264-30.08547H262.564103c-2.735043 20.239316-11.487179 35.555556-24.615385 46.495726z m165.196581 12.581197h-114.871795v-170.119658h24.615385v148.239316h90.25641v21.880342z m152.068376-21.880342c-14.222222 16.957265-33.91453 25.162393-59.076923 25.162393-25.162393 0-44.307692-8.205128-59.076923-25.162393-13.675214-15.863248-20.239316-37.196581-20.239316-62.905983 0-26.25641 6.564103-47.042735 20.239316-62.905983 14.222222-16.957265 33.91453-25.709402 59.076923-25.709402 24.615385 0 44.307692 8.205128 59.076923 25.162394 13.675214 15.863248 20.786325 37.196581 20.786325 63.452991 0 25.709402-7.111111 47.042735-20.786325 62.905983z m153.709402 12.581196c-11.487179 8.752137-27.350427 13.128205-48.136752 13.128206-19.692308 0-35.008547-4.376068-46.495727-12.581197-13.675214-9.846154-20.786325-25.709402-22.42735-47.042735h24.615384c1.641026 13.675214 6.564103 22.974359 13.675214 28.991453 6.564103 5.470085 16.957265 7.65812 30.632479 7.65812 12.034188 0 21.880342-2.188034 29.538461-6.564103 7.111111-4.376068 10.940171-10.393162 10.940171-18.051282 0-9.299145-4.923077-16.957265-15.316239-22.42735-3.82906-1.641026-14.769231-5.470085-32.273504-11.48718-20.239316-6.564103-32.820513-11.487179-37.74359-14.222222-12.581197-7.65812-18.598291-19.145299-18.598291-33.91453s6.017094-26.803419 18.051282-35.008547c11.487179-8.205128 25.709402-12.034188 43.213676-12.034188 19.145299 0 33.91453 4.376068 44.8547 12.581197 11.487179 8.752137 18.051282 22.42735 19.692308 41.025641h-24.615384c-2.188034-11.487179-6.564103-19.145299-12.581197-24.068377-6.017094-4.923077-15.316239-7.65812-27.897436-7.658119-10.940171 0-19.145299 1.641026-24.615385 4.923077-7.111111 3.82906-10.393162 9.846154-10.393162 18.59829 0 7.65812 3.82906 13.675214 12.034188 18.051282 3.82906 2.188034 13.675214 6.017094 28.444445 10.393163 22.42735 7.111111 36.649573 13.128205 42.666666 16.410256 14.222222 8.752137 21.333333 21.333333 21.333334 36.649573-1.641026 15.316239-7.111111 27.350427-18.598291 36.649572z m161.91453 9.299146H749.401709v-170.119658h117.606838v22.42735h-92.444444v49.777778h86.974359v22.42735h-86.974359v54.153846h96.273504v21.333334z" p-id="12608"></path></svg>