<?xml version="1.0" standalone="no"?><!DOCTYPE svg PUBLIC "-//W3C//DTD SVG 1.1//EN" "http://www.w3.org/Graphics/SVG/1.1/DTD/svg11.dtd"><svg t="1511431490737" class="icon" style="" viewBox="0 0 1024 1024" version="1.1" xmlns="http://www.w3.org/2000/svg" p-id="23997" xmlns:xlink="http://www.w3.org/1999/xlink" width="128" height="128"><defs><style type="text/css"></style></defs><path d="M569.878261 91.269565m-77.913044 0a77.913043 77.913043 0 1 0 155.826087 0 77.913043 77.913043 0 1 0-155.826087 0Z" fill="#256BB5" p-id="23998"></path><path d="M772.452174 578.782609l-24.486957-242.643479c-11.130435-95.721739-115.756522-126.886957-184.765217-126.886956-64.556522 0-142.469565 28.93913-186.991304 113.530435l-24.486957 48.973913-64.556522-69.008696c-11.130435-13.356522-31.165217-13.356522-42.295652-2.226087-13.356522 11.130435-13.356522 31.165217-2.226087 42.295652L340.591304 467.478261c13.356522 15.582609 44.521739 13.356522 57.878261-2.226087 8.904348-8.904348 55.652174-75.686957 55.652174-75.686957l13.356522 572.104348c0 22.26087 17.808696 40.069565 40.069565 40.069565s40.069565-17.808696 40.069565-40.069565l15.582609-331.686956 15.582609 331.686956c0 22.26087 17.808696 40.069565 40.069565 40.069565s40.069565-17.808696 40.069565-40.069565l15.582609-534.260869 37.843478 160.278261c2.226087 15.582609 17.808696 28.93913 33.391304 26.713043 15.582609-4.452174 28.93913-20.034783 26.713044-35.617391z" fill="#256BB5" p-id="23999"></path></svg>