<?xml version="1.0" standalone="no"?><!DOCTYPE svg PUBLIC "-//W3C//DTD SVG 1.1//EN" "http://www.w3.org/Graphics/SVG/1.1/DTD/svg11.dtd"><svg width="32" height="32" viewBox="0 0 32 32" version="1.1" xmlns="http://www.w3.org/2000/svg" xmlns:xlink="http://www.w3.org/1999/xlink"><defs><style type="text/css"><![CDATA[
@font-face { font-family: ifont; src: url("http://at.alicdn.com/t/font_1442373896_4754455.eot?#iefix") format("embedded-opentype"), url("http://at.alicdn.com/t/font_1442373896_4754455.woff") format("woff"), url("http://at.alicdn.com/t/font_1442373896_4754455.ttf") format("truetype"), url("http://at.alicdn.com/t/font_1442373896_4754455.svg#ifont") format("svg"); }

]]></style></defs><g class="transform-group"><g transform="scale(0.03125, 0.03125)"><path d="M514.025 989.218c-59.187 0-116.668-11.571-170.735-34.509-52.258-22.050-99.123-53.658-139.401-93.935-40.277-40.277-71.885-87.211-94.003-139.435-22.869-54.067-34.475-111.514-34.475-170.735 0-70.861 17.374-141.21 50.21-203.537 31.744-60.211 77.858-113.084 133.393-152.883 15.428-11.059 36.864-7.475 47.889 7.919 11.025 15.394 7.509 36.796-7.919 47.787-46.933 33.724-85.879 78.302-112.64 129.126-28.092 53.282-42.325 111.002-42.325 171.588 0 98.85 38.502 191.795 108.407 261.666 69.871 69.905 162.782 108.407 261.598 108.407 98.782 0 191.727-38.502 261.632-108.407 69.905-69.871 108.373-162.816 108.373-261.666 0-60.518-14.199-118.34-42.325-171.588-26.761-50.79-65.741-95.403-112.674-129.058-15.394-10.991-18.978-32.393-7.919-47.787 11.059-15.394 32.461-19.012 47.855-7.919 55.569 39.799 101.751 92.672 133.461 152.883 32.87 62.327 50.244 132.676 50.244 203.537 0 59.221-11.605 116.668-34.509 170.769-22.084 52.224-53.726 99.157-94.003 139.435-40.277 40.277-87.142 71.851-139.401 94.003-54.101 22.801-111.548 34.338-170.735 34.338v0zM524.333 513.263c-18.944 0-34.304-15.292-34.304-34.27v-406.255c0-18.91 15.36-34.304 34.304-34.304s34.338 15.394 34.338 34.304v406.255c0 18.978-15.394 34.27-34.338 34.27v0zM524.333 513.263z" fill="#272636"></path></g></g></svg>