<?xml version="1.0" standalone="no"?><!DOCTYPE svg PUBLIC "-//W3C//DTD SVG 1.1//EN" "http://www.w3.org/Graphics/SVG/1.1/DTD/svg11.dtd"><svg width="32" height="32" viewBox="0 0 32 32" version="1.1" xmlns="http://www.w3.org/2000/svg" xmlns:xlink="http://www.w3.org/1999/xlink"><defs><style type="text/css"><![CDATA[
@font-face { font-family: ifont; src: url("http://at.alicdn.com/t/font_1442373896_4754455.eot?#iefix") format("embedded-opentype"), url("http://at.alicdn.com/t/font_1442373896_4754455.woff") format("woff"), url("http://at.alicdn.com/t/font_1442373896_4754455.ttf") format("truetype"), url("http://at.alicdn.com/t/font_1442373896_4754455.svg#ifont") format("svg"); }

]]></style></defs><g class="transform-group"><g transform="scale(0.03125, 0.03125)"><path d="M870.843673 424.793846 196.097038 424.793846l0-73.65144c0-134.143163 181.125455-243.305375 315.274114-243.305375 134.148659 0 315.237274 109.162212 315.237274 243.305375 0 12.221346 9.91522 22.097274 22.136043 22.097274 12.221847 0 22.100226-9.875928 22.100226-22.097274 0-158.549016-200.950778-287.502993-359.47252-287.502993-158.555512 0-359.508337 128.953977-359.508337 287.502993l0 73.65144c-48.779935 0-88.471516 39.689954-88.471516 88.467891l0 336.710718c0 48.811706 39.692604 88.466867 88.471516 88.466867l718.980857 0c48.814729 0 88.471516-39.655162 88.471516-88.466867L959.316212 513.261737C959.315188 464.484823 919.658402 424.793846 870.843673 424.793846zM915.080965 849.972455c0 24.367991-19.829417 44.270273-44.237293 44.270273L151.862815 894.242727c-24.373082 0-44.238316-19.902282-44.238316-44.270273L107.624499 513.261737c0-24.37106 19.865234-44.197618 44.238316-44.197618l718.980857 0c24.407876 0 44.237293 19.826558 44.237293 44.197618L915.080965 849.972455zM496.40878 583.91796c-25.740275 0-46.576667 20.838607-46.576667 46.579875 0 17.248849 9.365682 32.287357 23.28731 40.336684l0 76.17696c0 12.833283 10.419731 23.289426 23.289357 23.289426s23.289357-10.456143 23.289357-23.289426l0-76.171843c13.938001-8.049327 23.326197-23.088858 23.326197-40.342824C543.024333 604.75759 522.149055 583.91796 496.40878 583.91796z" fill="#272636"></path></g></g></svg>