<?xml version="1.0" standalone="no"?><!DOCTYPE svg PUBLIC "-//W3C//DTD SVG 1.1//EN" "http://www.w3.org/Graphics/SVG/1.1/DTD/svg11.dtd"><svg t="1511416741201" class="icon" style="" viewBox="0 0 1199 1024" version="1.1" xmlns="http://www.w3.org/2000/svg" p-id="31938" xmlns:xlink="http://www.w3.org/1999/xlink" width="149.875" height="128"><defs><style type="text/css"></style></defs><path d="M585.786528 249.136947c61.372647 0 113.21134-51.827081 113.21134-113.188115V113.292629C698.997868 51.885144 647.159174 0 585.786528 0c-61.349422 0-113.188115 51.885144-113.188116 113.292629v22.656203c0.011613 61.349422 51.838694 113.188115 113.188116 113.188115zM505.926605 111.306872c0-43.361488 36.556498-79.999274 79.859923-79.999274 43.291812 0 79.871535 36.637786 79.871535 79.999274v26.627716c0 43.303425-36.579723 79.883148-79.871535 79.883148-43.303425 0-79.859923-36.568111-79.859923-79.883148V111.306872zM1042.394375 310.405081c61.349422 0 113.199728-51.803856 113.199728-113.176503v-22.644591c0-61.407485-51.850306-113.281016-113.199728-113.281016-61.326196 0-113.176503 51.873531-113.176502 113.281016v22.644591c0 61.372647 51.838694 113.176503 113.176502 113.176503zM961.640281 172.45888c0-43.81438 36.986165-80.87022 80.730869-80.87022s80.719256 37.044228 80.719256 80.87022v26.929643c0 43.744704-36.974552 80.719256-80.719256 80.719257s-80.730869-36.974552-80.730869-80.719257v-26.929643zM1101.641914 333.049671h-3.414107c-50.050352 0-98.323974 21.007213-132.465049 57.621774l-72.880744 78.187707H770.763801c-3.263144 0-6.444999 0.731594-9.348151 2.043819l-8.825584-12.135178a14.585439 14.585439 0 0 0-11.83325-6.038557H453.042776c-4.877296 0-9.42944 2.415423-12.135178 6.468224l-6.793377 10.091358a21.901384 21.901384 0 0 0-3.994738-0.429666h-126.345203l-72.892357-78.187707A181.748968 181.748968 0 0 0 98.393649 333.049671H94.991154C42.618281 333.049671 0 375.667952 0 428.029213v271.886051C0 772.238603 58.841098 833.506736 131.164436 833.506736h137.679111l67.295079 176.035564c2.996054 9.417827 11.740349 14.4577 21.57623 14.4577h90.764164c6.921116 0 13.447403-1.82318 17.732457-7.234656a22.59814 22.59814 0 0 0 4.354728-19.149195L401.796326 730.038376h186.010796V978.130188H520.709458a14.631889 14.631889 0 1 0 0 29.263779h157.269585a14.631889 14.631889 0 0 0 0-29.263779h-60.919755V730.038376h177.80068l-68.793105 267.56616c-1.567702 6.712089 0.069676 12.495169 4.354729 17.88342a22.644591 22.644591 0 0 0 17.686006 8.500431h100.321343c9.847494 0 18.59179-5.051486 21.57623-14.434475l67.329916-176.058788h128.145158c73.414924 0 133.788886-62.49907 133.788886-133.591472V428.029213c0-51.490315-43.81438-94.979542-97.627217-94.979542zM452.555046 494.279156l8.279792-12.297754h272.478294l129.921887 178.961941H340.412066l49.132956-73.020095c43.407938-19.869177 60.257836-64.380313 63.010024-93.644092z m399.54348 101.529054c3.123792 0.998685 6.189521 1.811567 9.185575 2.334135h113.74552c6.038557 0 23.724563-2.380585 27.974779-6.6308l6.05017-6.085008v72.520753h-106.325062c-2.485099 0-4.18054 0.069676-5.365026 0.197414l-45.265956-62.336494z m-545.595283 63.114539a145.23892 145.23892 0 0 0-12.576457-0.592243h-104.501882v-68.700204l15.990564 1.718666c4.261828 4.331504 10.079746 6.781765 16.164754 6.781765h117.995736c2.821864 0 5.411477-0.255477 8.105602-0.406442l-41.178317 61.198458z m127.436789 336.208301l-69.222772-0.58063-67.295078-173.910456a22.679428 22.679428 0 0 0-21.587843-15.758313h-159.092765c-47.391064 0-87.210705-57.621774-87.210705-104.977999V428.029213c0-27.382536 22.307825-69.373736 49.713586-69.373736h3.414107c37.54357 0 89.510002 15.758313 115.115809 43.187299l79.592832 88.058426c4.285053 4.575369 10.27716 7.199819 16.559583 7.199819h132.697301c-5.899206 15.827988-28.799274 52.117396-56.472125 67.248627-7.733999 4.215378-15.804763 6.897891-24.014879 6.897891H216.493899l-98.823316-108.821774-22.934906 22.423951 66.133817 65.07707v122.698843c0 12.495169 23.968428 15.177682 36.47521 15.177682h100.971649v21.390429c0 1.114811 0.394829 2.09027 0.627081 3.11218-0.232252 1.045135-0.627081 2.020594-0.627081 3.123792 0 8.082377 6.549512 14.631889 14.631889 14.631889h57.389522c0.348378 0.75482 0.743207 1.486414 1.045135 2.276072l62.557133 262.793377z m-106.371513-294.34484v-10.579088h543.655976v10.579088H327.568519z m843.911635 6.282422c0 46.601406-57.168882 97.824631-105.999909 97.824632H932.701656c-9.801043 0-18.556952-0.80127-21.541393 8.570106l-67.318303 181.992833h-83.994013l62.545521-255.674847a78.385121 78.385121 0 0 1 4.540531-9.74298h58.922386a14.631889 14.631889 0 0 0 14.631889-14.631889v-28.090905h115.127421a22.644591 22.644591 0 0 0 22.632978-22.644591V546.605579l64.05516-61.616511-18.626627-20.124654-96.256929 106.592152-132.674076-0.84772c-9.568791 0.452892-26.813518-13.308052-42.47893-29.658608l-32.132093-44.255659h116.230619c6.247584 0 12.274529-2.636063 16.559583-7.199818l79.604445-83.831436c25.594194-27.463824 77.665139-43.222137 115.197097-43.222137h3.472171c28.717986 0 60.269449 39.09966 60.269449 65.588025v279.039419zM416.335314 430.653663l-27.649626-0.429667v-27.661238c0-93.435065 130.502518-131.176049 197.10084-131.176049 66.633159 0 197.135677 37.740984 197.135677 131.176049v27.661238l-24.920663 1.625766v-27.661239c0-50.433568-69.164709-101.145838-172.215014-101.796144-96.907235-0.615468-169.451213 50.13164-169.451214 100.57682v27.684464zM158.465684 310.405081c62.406169 0 113.176503-50.781946 113.176502-113.176503v-22.644591c0-61.407485-51.838694-113.281016-113.176502-113.281016-61.349422 0-113.199728 51.873531-113.199728 113.281016v22.644591c0 61.372647 51.850306 113.176503 113.199728 113.176503zM77.502563 172.412429c0-43.942118 37.067453-81.114085 80.963121-81.114085 43.884055 0 80.986346 37.171966 80.986346 81.114085v26.99932c0 43.884055-37.102291 80.986346-80.986346 80.986346-43.895668 0-80.963121-37.090678-80.963121-80.986346v-26.99932z" p-id="31939"></path></svg>