<?xml version="1.0" standalone="no"?><!DOCTYPE svg PUBLIC "-//W3C//DTD SVG 1.1//EN" "http://www.w3.org/Graphics/SVG/1.1/DTD/svg11.dtd"><svg t="1511416336256" class="icon" style="" viewBox="0 0 1024 1024" version="1.1" xmlns="http://www.w3.org/2000/svg" p-id="21648" xmlns:xlink="http://www.w3.org/1999/xlink" width="128" height="128"><defs><style type="text/css"></style></defs><path d="M607.281 99.971c-130.944 0-237.465 106.519-237.465 237.462 0 90.468 50.868 169.273 125.505 209.343-155.427 47.92-268.69 192.899-268.69 363.849 0 12.534 10.139 22.674 22.673 22.674 12.531 0 22.672-10.141 22.672-22.674 0-184.88 150.427-335.305 333.622-335.374 2.427 0.245 4.813 0.077 7.089-0.444 128.435-2.886 232.036-108.259 232.036-237.373 0-130.943-106.521-237.462-237.444-237.462z m0 429.559c-105.945 0-192.118-86.171-192.118-192.096 0-105.946 86.174-192.118 192.118-192.118 105.924 0 192.098 86.173 192.098 192.118 0 105.925-86.174 192.096-192.098 192.096z m269.525 112.346c-8.833-8.879-23.18-8.879-32.059-0.044-8.858 8.834-8.879 23.181-0.046 32.061 63.125 63.324 97.887 147.395 97.887 236.734 0 12.534 10.141 22.674 22.672 22.674 12.532 0 22.674-10.141 22.674-22.674-0.001-101.428-39.456-196.881-111.13-268.75z m-509.38-106.543c0-0.031-0.004-0.059-0.004-0.09s0.004-0.059 0.004-0.09c0-12.531-10.141-22.672-22.674-22.672-82.254 0-149.166-71.494-149.166-159.372 0-87.879 66.912-159.372 149.166-159.372 12.533 0 22.674-10.144 22.674-22.674 0-12.531-10.141-22.672-22.674-22.672-107.25 0-194.51 91.843-194.51 204.718 0 75.103 38.638 140.881 96.083 176.505-122.31 43.461-210.641 165.6-210.641 309.099 0 12.531 10.142 22.672 22.673 22.672 12.532 0 22.673-10.142 22.673-22.672 0-154.791 118.302-280.706 263.723-280.706 12.533 0 22.673-10.144 22.673-22.674z" p-id="21649"></path></svg>