<?xml version="1.0" standalone="no"?><!DOCTYPE svg PUBLIC "-//W3C//DTD SVG 1.1//EN" "http://www.w3.org/Graphics/SVG/1.1/DTD/svg11.dtd"><svg t="1511416232272" class="icon" style="" viewBox="0 0 1024 1024" version="1.1" xmlns="http://www.w3.org/2000/svg" p-id="20222" xmlns:xlink="http://www.w3.org/1999/xlink" width="128" height="128"><defs><style type="text/css"></style></defs><path d="M203.2128 943.3088c-8.567467 0-16.145067-3.362133-21.2992-9.506133-9.352533-11.1104-7.168-26.897067-6.656-29.969067l28.142933-141.6192c-62.532267-70.058667-96.8704-158.225067-96.8704-249.1392 0-216.2176 190.583467-392.1408 424.840534-392.1408 234.24 0 424.789333 175.9232 424.789333 392.1408 0 216.234667-190.549333 392.1408-424.789333 392.1408-54.391467 0-107.281067-9.352533-157.371734-27.8016l-145.015466 58.1632c-9.796267 5.205333-18.2272 7.7312-25.770667 7.7312z m-0.017067-32.682667l0.017067 16.349867-0.017067-16.349867zM531.370667 153.634133c-216.234667 0-392.157867 161.245867-392.157867 359.458134 0 85.333333 33.314133 168.123733 93.781333 233.096533l5.700267 6.109867-31.266133 157.269333c1.6896-0.6144 3.9424-1.621333 6.8608-3.191467l1.6896-0.802133 157.696-63.249067 5.9904 2.304a420.522667 420.522667 0 0 0 151.688533 27.921067c216.200533 0 392.123733-161.262933 392.123733-359.4752 0-198.178133-175.906133-359.441067-392.106666-359.441067z" fill="#7C7C7C" p-id="20223"></path><path d="M531.370667 499.473067a32.682667 32.682667 0 1 0-0.0512 65.348266 32.682667 32.682667 0 0 0 0.0512-65.348266z m147.029333 0a32.648533 32.648533 0 0 0-32.648533 32.6656 32.682667 32.682667 0 1 0 32.648533-32.6656z m-294.075733 0a32.682667 32.682667 0 1 0 0 65.3824 32.699733 32.699733 0 0 0 0-65.3824z" fill="#7C7C7C" p-id="20224"></path></svg>