<?xml version="1.0" standalone="no"?><!DOCTYPE svg PUBLIC "-//W3C//DTD SVG 1.1//EN" "http://www.w3.org/Graphics/SVG/1.1/DTD/svg11.dtd"><svg t="1511418948488" class="icon" style="" viewBox="0 0 1141 1024" version="1.1" xmlns="http://www.w3.org/2000/svg" p-id="12484" xmlns:xlink="http://www.w3.org/1999/xlink" width="142.625" height="128"><defs><style type="text/css"></style></defs><path d="M278.016 433.664c-3.072 0-9.728-3.072-13.312-6.656-6.656-6.656-6.656-19.968 0-26.624l13.312-13.312c6.656-6.656 19.968-6.656 26.624 0s6.656 19.968 0 26.624l-13.312 13.312c-3.072 3.072-9.728 6.656-13.312 6.656zM327.68 380.416c-3.072 0-9.728-3.072-13.312-6.656-6.656-6.656-6.656-19.968 0-26.624l13.312-13.312c6.656-6.656 19.968-6.656 26.624 0 6.656 6.656 6.656 19.968 0 26.624L340.992 373.76c-3.072 6.656-6.656 6.656-13.312 6.656z m49.664-49.152c-3.072 0-9.728-3.072-13.312-6.656-6.656-6.656-6.656-19.968 0-26.624l13.312-13.312c6.656-6.656 19.968-6.656 26.624 0s6.656 19.968 0 26.624l-13.312 13.312c-3.584 1.536-6.656 6.656-13.312 6.656zM430.08 276.48c-3.072 0-9.728-3.072-13.312-6.656-6.656-6.656-6.656-19.968 0-26.624L430.08 230.4c6.656-6.656 19.968-6.656 26.624 0s6.656 19.968 0 26.624l-13.312 13.312C440.32 276.48 433.664 276.48 430.08 276.48z m49.664-52.736c-3.072 0-9.728-3.072-13.312-6.656-6.656-6.656-6.656-19.968 0-26.624l13.312-13.312c6.656-6.656 19.968-6.656 26.624 0 6.656 6.656 6.656 19.968 0 26.624l-13.312 13.312c-3.072 6.656-6.656 6.656-13.312 6.656zM869.888 433.664c-3.072 0-9.728-3.072-13.312-6.656l-13.312-13.312c-6.656-6.656-6.656-19.968 0-26.624 6.656-6.656 19.968-6.656 26.624 0l13.312 13.312c6.656 6.656 6.656 19.968 0 26.624-6.656 3.072-10.24 6.656-13.312 6.656z m-52.736-53.248c-3.072 0-9.728-3.072-13.312-6.656l-13.312-13.312c-6.656-6.656-6.656-19.968 0-26.624s19.968-6.656 26.624 0l13.312 13.312c6.656 6.656 6.656 19.968 0 26.624-3.584 6.656-6.656 6.656-13.312 6.656z m-49.664-49.152c-3.072 0-9.728-3.072-13.312-6.656l-13.312-13.312c-6.656-6.656-6.656-19.968 0-26.624s19.968-6.656 26.624 0l13.312 13.312c6.656 6.656 6.656 19.968 0 26.624-3.584 1.536-10.24 6.656-13.312 6.656zM717.824 276.48c-3.072 0-9.728-3.072-13.312-6.656l-13.312-13.312c-6.656-6.656-6.656-19.968 0-26.624s19.968-6.656 26.624 0l13.312 13.312c6.656 6.656 6.656 19.968 0 26.624s-9.728 6.656-13.312 6.656z m-52.736-52.736c-3.072 0-9.728-3.072-13.312-6.656l-13.312-13.312c-6.656-6.656-6.656-19.968 0-26.624s19.968-6.656 26.624 0l13.312 13.312c6.656 6.656 6.656 19.968 0 26.624-3.584 6.656-6.656 6.656-13.312 6.656z" fill="#333333" p-id="12485"></path><path d="M969.216 955.904h-793.6c-60.928 0-107.52-46.08-107.52-107.52v-317.44c0-59.392 48.128-107.52 107.52-107.52h793.088c60.928 0 107.52 46.08 107.52 107.52v317.44c0 62.976-46.08 107.52-107.008 107.52zM175.616 440.32c-49.664 0-91.136 43.008-91.136 92.672v315.904c0 51.2 39.424 91.136 91.136 91.136h793.088c51.2 0 91.136-39.424 91.136-91.136v-317.44c0-51.2-39.424-91.136-91.136-91.136H175.616z" fill="#333333" p-id="12486"></path><path d="M393.728 689.664c0 46.08-39.424 86.016-89.088 86.016s-89.088-36.352-89.088-86.016 39.424-86.016 89.088-86.016c52.736 3.584 89.088 41.472 89.088 86.016z m-148.48 0c0 33.28 26.624 59.392 59.392 59.392s59.392-26.624 59.392-59.392c0-33.28-24.064-57.856-59.392-59.392-30.208 0-59.392 26.112-59.392 59.392zM625.152 635.392v46.08h82.432v26.624h-82.432v46.08h92.672v26.624h-122.368v-168.448h118.784v26.624h-89.088v-3.584zM876.544 777.216l-89.088-118.784v118.784H757.76v-168.448h26.624l89.088 118.784v-118.784h26.624v168.448h-23.552zM572.416 205.312c-39.424 0-75.776-33.28-75.776-75.776 0-39.424 33.28-75.776 75.776-75.776 39.424 0 75.776 33.28 75.776 75.776s-32.768 75.776-75.776 75.776z m0-113.664c-19.968 0-39.424 16.384-39.424 39.424 0 19.968 16.384 39.424 39.424 39.424 19.968 0 39.424-16.384 39.424-39.424s-16.384-39.424-39.424-39.424zM498.176 612.352H428.032v180.736h30.208v-60.416h39.936c43.52 0 67.072-23.552 67.072-59.904 0-36.864-23.552-60.416-67.072-60.416z m0 93.696h-39.936v-67.072h39.936c26.624 0 39.936 10.24 39.936 33.28 0.512 23.552-13.312 33.792-39.936 33.792z" fill="#333333" p-id="12487"></path></svg>