<?xml version="1.0" standalone="no"?><!DOCTYPE svg PUBLIC "-//W3C//DTD SVG 1.1//EN" "http://www.w3.org/Graphics/SVG/1.1/DTD/svg11.dtd"><svg width="32" height="32" viewBox="0 0 32 32" version="1.1" xmlns="http://www.w3.org/2000/svg" xmlns:xlink="http://www.w3.org/1999/xlink"><defs><style type="text/css"><![CDATA[
@font-face { font-family: ifont; src: url("http://at.alicdn.com/t/font_1442373896_4754455.eot?#iefix") format("embedded-opentype"), url("http://at.alicdn.com/t/font_1442373896_4754455.woff") format("woff"), url("http://at.alicdn.com/t/font_1442373896_4754455.ttf") format("truetype"), url("http://at.alicdn.com/t/font_1442373896_4754455.svg#ifont") format("svg"); }

]]></style></defs><g class="transform-group"><g transform="scale(0.03125, 0.03125)"><path d="M340.153 424.14v-45.796h335.878v45.796h-335.878zM340.153 592.080v-45.801h335.878v45.801h-335.878zM340.153 760.020v-45.788h335.878v45.788h-335.878zM737.105 240.742c-25.293 0-45.808-20.493-45.808-45.769v-137.286c0-25.275 20.513-45.769 45.808-45.769 25.298 0 45.802 20.493 45.802 45.769v137.286c-0.001 25.275-20.502 45.769-45.802 45.769zM508.092 240.742c-25.297 0-45.801-20.493-45.801-45.769v-137.286c0-25.275 20.502-45.769 45.801-45.769 25.296 0 45.799 20.493 45.799 45.769v137.286c0 25.275-20.502 45.769-45.799 45.769zM279.088 240.742c-25.297 0-45.808-20.493-45.808-45.769v-137.286c0-25.275 20.511-45.769 45.808-45.769 25.286 0 45.799 20.493 45.799 45.769v137.286c0 25.275-20.512 45.769-45.799 45.769zM355.419 103.527h76.341v45.801h-76.341v-45.801zM584.433 103.527h76.332v45.801h-76.332v-45.801zM874.515 103.527h-61.077v45.801h61.077c16.863 0 30.53 13.667 30.53 30.532v732.842c0 16.865-13.667 30.531-30.53 30.531h-732.835c-16.862 0-30.531-13.667-30.531-30.531v-732.844c0-16.863 13.667-30.532 30.531-30.532h61.065v-45.801h-61.065c-42.159 0-76.339 34.182-76.339 76.332v732.842c0 42.149 34.181 76.333 76.339 76.333h732.833c42.162 0 76.333-34.182 76.333-76.333v-732.841c0-42.149-34.171-76.332-76.332-76.332zM737.097 240.742c-25.297 0-45.801-20.493-45.801-45.769v-137.286c0-25.275 20.502-45.769 45.801-45.769 25.294 0 45.799 20.493 45.799 45.769v137.286c0 25.275-20.503 45.769-45.799 45.769z" fill="#272636"></path></g></g></svg>