<?xml version="1.0" standalone="no"?><!DOCTYPE svg PUBLIC "-//W3C//DTD SVG 1.1//EN" "http://www.w3.org/Graphics/SVG/1.1/DTD/svg11.dtd"><svg t="1511418958596" class="icon" style="" viewBox="0 0 1024 1024" version="1.1" xmlns="http://www.w3.org/2000/svg" p-id="12728" xmlns:xlink="http://www.w3.org/1999/xlink" width="128" height="128"><defs><style type="text/css"></style></defs><path d="M642.176828 505.539868c16.941857 16.941857 41.99137 24.309662 65.562205 17.680684l158.38017-42.71587c22.829961-5.888104 41.251519-24.310685 47.881521-47.881521l42.716893-158.38017c4.424776-18.422581 1.480724-38.307468-8.833179-54.509474l-174.5832 174.565804-136.27471-136.273686L810.868855 84.183308c-16.20303-10.31288-36.087916-13.996782-54.509475-8.833179L597.978187 118.070092c-22.829961 5.888104-41.251519 24.310685-47.880497 47.881521l-42.716894 158.38017c-6.628978 23.568788 0.73985 48.620347 17.680684 65.562205l4.423753 4.423753 32.266891 31.624254-0.445138-0.393973-66.219168 55.469336-227.477898-228.464365-0.931208-69.50705L131.446751 100.307543 65.291029 166.584016l82.18172 132.181485 71.001078 0.063445 224.930889 225.481428-338.669327 283.680944c-27.083845 27.084868-27.083845 71.000054 0 98.082876l24.536836 24.534789c27.083845 27.145244 71.063499 27.145244 98.147345 0l297.298079-324.739059 42.240034 42.361807-24.165376 24.161283c-13.540388 13.543458-13.540388 35.531238 0 49.072648l214.931141 217.156832c13.540388 13.540388 35.530215 13.540388 49.074695 0l98.144274-98.141204c13.541411-13.543458 13.541411-35.531238 0-49.072649L689.950901 574.312184c-13.540388-13.602809-35.468816-13.602809-49.071625 0l-26.463722 26.460652-44.35316-44.474934 58.738799-64.134693 13.375635 13.376659z m-456.003661 386.062729c-13.543458 13.541411-35.532261 13.541411-49.073672 0-13.541411-13.543458-13.541411-35.469839 0-49.072648 13.541411-13.540388 35.530215-13.540388 49.073672 0 13.540388 13.602809 13.540388 35.528168 0 49.072648zM707.753359 397.261793l-51.565422 51.565422-14.736633-14.736632 51.564399-51.5644 14.737656 14.73561z m-125.236306-22.092158l51.5644-51.564399 14.736632 14.736632-51.565422 51.565423-14.73561-14.737656z m29.459963 30.200836l51.564399-51.565423 14.736632 14.736633-51.564399 51.564399-14.736632-14.735609z" fill="#333333" p-id="12729"></path></svg>