<?xml version="1.0" standalone="no"?><!DOCTYPE svg PUBLIC "-//W3C//DTD SVG 1.1//EN" "http://www.w3.org/Graphics/SVG/1.1/DTD/svg11.dtd"><svg t="1511417071809" class="icon" style="" viewBox="0 0 1024 1024" version="1.1" xmlns="http://www.w3.org/2000/svg" p-id="40752" xmlns:xlink="http://www.w3.org/1999/xlink" width="128" height="128"><defs><style type="text/css"></style></defs><path d="M763.671273 46.545455H268.730182c-1.815273 0-3.421091 0.581818-5.096727 1.000727a76.427636 76.427636 0 0 0-44.19491 7.866182c-22.341818 11.915636-36.305455 33.652364-37.492363 58.414545V757.783273c0 37.399273 47.104 63.557818 67.304727 73.169454 0.721455 0.465455 1.675636 0.907636 2.420364 1.396364l239.429818 135.307636a76.567273 76.567273 0 0 0 37.236364 9.797818c12.055273 0 24.040727-3.048727 35.584-8.890181 22.597818-11.938909 36.514909-33.885091 37.72509-58.414546V839.330909h162.280728c43.496727 0 78.359273-34.094545 78.103272-76.148364V122.717091C842.053818 80.663273 806.981818 46.545455 763.671273 46.545455z m-203.613091 860.113454v1.605818c-0.465455 10.263273-6.469818 19.409455-16.081455 24.552728-10.100364 5.352727-22.132364 5.352727-31.976727-0.232728l-239.429818-135.284363a109.381818 109.381818 0 0 0-5.282909-2.792728c-24.040727-11.217455-43.752727-27.810909-43.752728-36.701091V117.341091v-1.629091c0.465455-10.519273 6.469818-19.386182 16.104728-24.529455 4.817455-2.583273 10.333091-3.979636 15.616-3.979636 5.282909 0 10.821818 1.419636 16.360727 4.212364l239.429818 135.284363c1.675636 0.930909 3.374545 1.885091 5.282909 2.816 24.064 11.217455 43.752727 27.810909 43.752728 36.701091v640.442182z m240.430545-143.476364c0 19.618909-16.337455 35.490909-36.538182 35.49091h-162.280727v-532.48c0-37.399273-47.104-63.557818-67.304727-73.146182-0.721455-0.488727-1.675636-0.954182-2.420364-1.419637l-184.832-104.448h416.837818c20.200727 0 36.538182 15.895273 36.538182 35.514182v640.488727z" p-id="40753"></path><path d="M485.329455 400.523636l-15.616-3.746909c-1.210182-0.232727-2.187636-0.465455-3.397819-0.465454-17.058909 0-30.999273 13.568-30.999272 30.138182v211.246545c0 16.081455 12.986182 29.184 29.090909 30.114909l15.616 3.746909c1.210182 0.232727 2.187636 0.488727 3.397818 0.488727 17.291636 0 31.255273-13.568 30.999273-30.161454v-211.223273c0-16.104727-12.986182-29.184-29.090909-30.138182z m1.419636 241.152c0 1.396364-0.930909 2.56-2.141091 3.025455l-14.917818-3.467636c-1.210182-0.256-2.187636-0.488727-3.397818-0.488728a3.141818 3.141818 0 0 1-3.118546-3.025454v-211.246546c0-1.419636 0.954182-2.583273 2.164364-3.048727l14.917818 3.514182c1.186909 0.232727 2.164364 0.465455 3.374545 0.465454 1.675636 0 3.118545 1.419636 3.118546 3.025455v211.246545z" p-id="40754"></path></svg>