<?xml version="1.0" standalone="no"?><!DOCTYPE svg PUBLIC "-//W3C//DTD SVG 1.1//EN" "http://www.w3.org/Graphics/SVG/1.1/DTD/svg11.dtd"><svg t="1511416760379" class="icon" style="" viewBox="0 0 1027 1024" version="1.1" xmlns="http://www.w3.org/2000/svg" p-id="32051" xmlns:xlink="http://www.w3.org/1999/xlink" width="128.375" height="128"><defs><style type="text/css"></style></defs><path d="M931.440908 974.060611 94.831809 974.060611c-52.286854 0-94.831832-48.331775-94.831832-107.760283L-2.3e-05 452.075189c0-59.419298 42.544979-107.758236 94.831832-107.758236l836.609099 0c52.287877 0 94.818529 48.338938 94.818529 107.758236l0 414.226163C1026.259437 925.728836 983.728785 974.060611 931.440908 974.060611zM94.831809 374.09414c-35.870975 0-65.053622 34.984792-65.053622 77.981049l0 414.226163c0 42.996257 29.182646 77.980026 65.053622 77.980026l836.609099 0c35.856649 0 65.040319-34.984792 65.040319-77.980026L996.481226 452.075189c0-42.996257-29.183669-77.981049-65.040319-77.981049L94.831809 374.09414z" p-id="32052"></path><path d="M284.205877 749.716077c0 20.676925-7.924483 37.065174-23.715121 49.190329-15.820314 12.140505-37.353746 18.204617-64.588017 18.204617-27.263947 0-48.521087-6.282077-63.788815-18.872836-15.267728-12.57848-22.887266-28.308743-22.887266-47.183626l0-9.422603 37.615713 0 0 8.084119c0 13.478989 4.900613 23.816428 14.715143 31.002085 9.81453 7.196912 21.25714 10.786671 34.345226 10.786671 17.418718 0 30.243815-3.822049 38.415938-11.456936 8.18645-7.633864 12.271488-16.85283 12.271488-27.641547 0-8.970302-4.89959-17.289782-14.71412-24.935925-9.81453-7.620561-23.991414-14.59951-42.515303-20.894889-26.173103-8.083096-44.974307-17.055444-56.416917-26.957978-11.44261-9.873882-17.172101-21.564132-17.172101-35.042097 0-18.87386 7.894807-34.140565 23.715121-45.830815 15.790638-11.662621 34.591843-17.522072 56.416917-17.522072 28.324092 0 48.767703 6.966669 61.316507 20.894889 12.519128 13.945617 18.801205 28.977985 18.801205 45.147246l-37.601386 0c1.061169-9.870812-2.196015-18.871813-9.815553-26.959002-7.647167-8.083096-18.552541-12.126178-32.700773-12.126178-13.087063 0-23.453155 2.923586-31.072693 8.768711-7.648191 5.845125-11.443633 13.69593-11.443633 23.584138 0 8.084119 2.980891 15.048741 8.985652 20.893866 5.976108 5.845125 21.520129 12.795421 46.602388 20.895913 23.977088 8.083096 42.515303 17.753339 55.602366 28.977985C277.662857 722.540134 284.205877 735.349881 284.205877 749.716077z" p-id="32053"></path><path d="M504.958607 814.407448l-39.244816 0-22.901593-71.437006-71.946612 0-22.900569 71.437006-39.243793 0 81.759095-233.184877 32.716122 0L504.958607 814.407448zM434.640075 717.364251l-26.157753-82.226746-3.27151 0-26.173103 82.226746L434.640075 717.364251z" p-id="32054"></path><path d="M702.82407 814.407448 532.75979 814.407448 532.75979 583.912843l37.601386 0 0 204.889437 132.462894 0L702.82407 814.407448z" p-id="32055"></path><path d="M912.132143 814.407448 745.325046 814.407448 745.325046 583.912843l158.619624 0 0 25.621541L782.940759 609.534384l0 71.434959 111.190405 0 0 25.606191L782.940759 706.575534l0 82.226746 129.191384 0L912.132143 814.407448z" p-id="32056"></path><path d="M973.652288 392.517745 513.129707 79.419817 52.607125 392.517745 35.856626 367.886765 513.129707 43.417859 990.402788 367.886765Z" p-id="32057"></path><path d="M559.65944 61.418838c0 25.692149-20.822235 46.529733-46.529733 46.529733-25.692149 0-46.52871-20.837584-46.52871-46.529733s20.836561-46.52871 46.52871-46.52871C538.837205 14.890128 559.65944 35.725666 559.65944 61.418838z" p-id="32058"></path><path d="M513.129707 122.837676c-33.863249 0-61.417815-27.554566-61.417815-61.418838s27.554566-61.418838 61.417815-61.418838c33.864272 0 61.417815 27.553543 61.417815 61.418838S546.993979 122.837676 513.129707 122.837676zM513.129707 29.779234c-17.448394 0-31.639604 14.19121-31.639604 31.639604s14.192234 31.639604 31.639604 31.639604c17.449417 0 31.639604-14.192234 31.639604-31.639604S530.579124 29.779234 513.129707 29.779234z" p-id="32059"></path></svg>