<?xml version="1.0" standalone="no"?><!DOCTYPE svg PUBLIC "-//W3C//DTD SVG 1.1//EN" "http://www.w3.org/Graphics/SVG/1.1/DTD/svg11.dtd"><svg width="32" height="32" viewBox="0 0 32 32" version="1.1" xmlns="http://www.w3.org/2000/svg" xmlns:xlink="http://www.w3.org/1999/xlink"><defs><style type="text/css"><![CDATA[
@font-face { font-family: ifont; src: url("http://at.alicdn.com/t/font_1442373896_4754455.eot?#iefix") format("embedded-opentype"), url("http://at.alicdn.com/t/font_1442373896_4754455.woff") format("woff"), url("http://at.alicdn.com/t/font_1442373896_4754455.ttf") format("truetype"), url("http://at.alicdn.com/t/font_1442373896_4754455.svg#ifont") format("svg"); }

]]></style></defs><g class="transform-group"><g transform="scale(0.03125, 0.03125)"><path d="M888.079 926.493c-11.123 0-20.172-9.049-20.172-20.171 0-198.006-161.116-359.095-359.157-359.095-198.005 0-359.095 161.090-359.095 359.095 0 11.123-9.047 20.171-20.171 20.171-11.123 0-20.172-9.049-20.172-20.171 0-85.719 26.896-167.468 77.776-236.41 24.484-33.172 53.813-62.294 87.179-86.56 33.757-24.553 70.89-43.569 110.358-56.521l26.048-8.545-23.109-14.745c-64.086-40.891-102.351-110.23-102.351-185.482 0-121.613 98.911-220.554 220.487-220.554 121.578 0 220.487 98.94 220.487 220.554 0 74.291-37.394 143.18-100.028 184.276l-22.833 14.985 26.032 8.259c39.918 12.663 77.5 31.517 111.706 56.039 33.776 24.212 63.49 53.391 88.315 86.72 51.593 69.266 78.861 151.557 78.861 237.984 0.004 11.123-9.043 20.171-20.165 20.171zM505.707 137.847c-99.331 0-180.148 80.842-180.148 180.213 0 99.33 80.814 180.148 180.148 180.148s180.148-80.814 180.148-180.148c0-99.37-80.815-180.213-180.148-180.213z" fill="#272636"></path></g></g></svg>